<?xml version="1.0" encoding="UTF-8"?>
<svg width="20px" height="20px" viewBox="0 0 20 20" version="1.1" xmlns="http://www.w3.org/2000/svg" xmlns:xlink="http://www.w3.org/1999/xlink">
    <!-- Generator: Sketch 46.2 (44496) - http://www.bohemiancoding.com/sketch -->
    <title>Group 3</title>
    <desc>Created with Sketch.</desc>
    <defs></defs>
    <g id="Page-1" stroke="none" stroke-width="1" fill="none" fill-rule="evenodd">
        <g id="Group-5" transform="translate(-982.000000, -133.000000)">
            <g id="Group" transform="translate(899.000000, 133.000000)">
                <g id="Group-3" transform="translate(83.000000, 0.000000)">
                    <path d="M19.94,5.8775 C19.77625,2.25 17.75875,0.2275 14.12375,0.06125 C13.05625,0.01125 12.71625,0 10,0 C7.28375,0 6.945,0.01125 5.8775,0.06 C2.245,0.22625 0.2275,2.24125 0.06,5.87625 C0.01125,6.94375 0,7.285 0,10 C0,12.71625 0.01125,13.05625 0.06,14.1225 C0.2275,17.755 2.2425,19.77375 5.8775,19.94 C6.945,19.98875 7.28375,20 10,20 C12.71625,20 13.05625,19.98875 14.12375,19.94 C17.75125,19.77375 19.77625,17.75875 19.94,14.1225 C19.98875,13.05625 20,12.71625 20,10 C20,7.285 19.98875,6.94375 19.94,5.8775 Z" id="Mask" fill="#33353A" fill-rule="nonzero"></path>
                    <path d="M17.0093677,4 L14.4800937,4 C13.5120951,4 12.6924311,4.34347822 12.0210773,5.03044496 C11.3497234,5.71741171 11.0140515,6.54488197 11.0140515,7.51288056 L11.0140515,9.99531616 L9,9.99531616 L9,12.9929742 L11.0140515,12.9929742 L11.0140515,19.971897 L14.0117096,19.971897 L14.0117096,12.9929742 L17.0093677,12.9929742 L17.0093677,9.99531616 L14.0117096,9.99531616 L14.0117096,7.98126464 C14.0117096,7.73145855 14.1053855,7.50507518 14.29274,7.30210773 C14.4800946,7.09914028 14.7142843,6.99765808 14.9953162,6.99765808 L17.0093677,6.99765808 L17.0093677,4 Z" id="Path" fill="#FFFFFF"></path>
                </g>
            </g>
        </g>
    </g>
</svg>