<?xml version="1.0" encoding="UTF-8"?>
<svg width="20px" height="20px" viewBox="0 0 20 20" version="1.1" xmlns="http://www.w3.org/2000/svg" xmlns:xlink="http://www.w3.org/1999/xlink">
    <!-- Generator: Sketch 46.2 (44496) - http://www.bohemiancoding.com/sketch -->
    <title>Shape</title>
    <desc>Created with Sketch.</desc>
    <defs></defs>
    <g id="Page-1" stroke="none" stroke-width="1" fill="none" fill-rule="evenodd">
        <g id="Group-5" transform="translate(-899.000000, -133.000000)" fill-rule="nonzero" fill="#33353A">
            <g id="Group" transform="translate(899.000000, 133.000000)">
                <path d="M13.33375,10 C13.33375,11.84125 11.84125,13.33375 10,13.33375 C8.15875,13.33375 6.66625,11.8425 6.66625,10 C6.66625,8.15875 8.15875,6.66625 10,6.66625 C11.84125,6.66625 13.33375,8.15875 13.33375,10 Z M18.14125,5.96 C18.18875,7.01375 18.19875,7.33 18.19875,10 C18.19875,12.67 18.18875,12.98625 18.14125,14.04125 C18.01625,16.72875 16.755,18.0175 14.0425,18.14 C12.9875,18.1875 12.67125,18.19875 10,18.19875 C7.33,18.19875 7.0125,18.18875 5.96,18.14125 C3.2425,18.0175 1.98375,16.72625 1.86125,14.0425 C1.8125,12.98625 1.80125,12.67 1.80125,10 C1.80125,7.33 1.8125,7.01375 1.86,5.96 C1.98375,3.27 3.24625,1.98375 5.95875,1.86125 C7.01375,1.8125 7.33,1.8025 10,1.8025 C12.67,1.8025 12.9875,1.8125 14.04125,1.86 C16.75125,1.98375 18.01625,3.27 18.14125,5.96 Z M15.135,10 C15.135,7.16375 12.835,4.865 10,4.865 C7.16375,4.865 4.865,7.16375 4.865,10 C4.865,12.83625 7.165,15.135 10,15.135 C12.83625,15.135 15.135,12.83625 15.135,10 Z M16.5375,4.6625 C16.5375,4 16,3.4625 15.3375,3.4625 C14.675,3.4625 14.1375,4 14.1375,4.6625 C14.1375,5.325 14.675,5.8625 15.3375,5.8625 C16.00125,5.8625 16.5375,5.325 16.5375,4.6625 L16.5375,4.6625 Z M20,10 C20,7.285 19.98875,6.94375 19.94,5.8775 C19.77625,2.25 17.75875,0.2275 14.12375,0.06125 C13.05625,0.01125 12.71625,0 10,0 C7.28375,0 6.945,0.01125 5.8775,0.06 C2.245,0.22625 0.2275,2.24125 0.06,5.87625 C0.01125,6.94375 0,7.285 0,10 C0,12.71625 0.01125,13.05625 0.06,14.1225 C0.2275,17.755 2.2425,19.77375 5.8775,19.94 C6.945,19.98875 7.28375,20 10,20 C12.71625,20 13.05625,19.98875 14.12375,19.94 C17.75125,19.77375 19.77625,17.75875 19.94,14.1225 C19.98875,13.05625 20,12.71625 20,10 L20,10 Z" id="Shape"></path>
            </g>
        </g>
    </g>
</svg>