<?xml version="1.0" encoding="UTF-8"?>
<svg width="20px" height="20px" viewBox="0 0 20 20" version="1.1" xmlns="http://www.w3.org/2000/svg" xmlns:xlink="http://www.w3.org/1999/xlink">
    <!-- Generator: Sketch 46.2 (44496) - http://www.bohemiancoding.com/sketch -->
    <title>Group 3</title>
    <desc>Created with Sketch.</desc>
    <defs></defs>
    <g id="Page-1" stroke="none" stroke-width="1" fill="none" fill-rule="evenodd">
        <g id="Group-5" transform="translate(-960.000000, -133.000000)">
            <g id="Group" transform="translate(899.000000, 133.000000)">
                <g id="Group-3" transform="translate(61.000000, 0.000000)">
                    <path d="M20,10 C20,7.285 19.98875,6.94375 19.94,5.8775 C19.77625,2.25 17.75875,0.2275 14.12375,0.06125 C13.05625,0.01125 12.71625,0 10,0 C7.28375,0 6.945,0.01125 5.8775,0.06 C2.245,0.22625 0.2275,2.24125 0.06,5.87625 C0.01125,6.94375 0,7.285 0,10 C0,12.71625 0.01125,13.05625 0.06,14.1225 C0.2275,17.755 2.2425,19.77375 5.8775,19.94 C6.945,19.98875 7.28375,20 10,20 C12.71625,20 13.05625,19.98875 14.12375,19.94 C17.75125,19.77375 19.77625,17.75875 19.94,14.1225 C19.98875,13.05625 20,12.71625 20,10 L20,10 Z" id="Mask" fill="#33353A" fill-rule="nonzero"></path>
                    <path d="M15.9594067,7.68540203 L15.9594067,8.02888368 C15.9594067,8.96565652 15.7876676,9.88680265 15.4441842,10.7923497 C15.1007009,11.6978968 14.6115046,12.5253671 13.9765808,13.2747853 C13.341657,14.0242036 12.5193909,14.6330968 11.509758,15.1014832 C10.5001251,15.5698696 9.39162717,15.8040593 8.18423107,15.8040593 C6.66457736,15.8040593 5.26984762,15.3981305 4,14.5862607 C4.20817174,14.6070779 4.42674879,14.6174863 4.6557377,14.6174863 C5.92558532,14.6174863 7.06010429,14.2323744 8.05932865,13.462139 C7.4556306,13.4413218 6.91959641,13.25397 6.45120999,12.9000781 C5.98282358,12.5461861 5.66536643,12.0986236 5.49882904,11.557377 C5.66536643,11.5990114 5.83190133,11.6198283 5.99843872,11.6198283 C6.24824481,11.6198283 6.48763872,11.5781945 6.71662763,11.4949258 C6.09211241,11.3700228 5.57169087,11.0577699 5.15534738,10.5581577 C4.7390039,10.0585455 4.53083528,9.48608181 4.53083528,8.84074941 L4.53083528,8.80952381 C4.92636159,9.01769555 5.34269883,9.13218829 5.77985948,9.15300546 C4.9679897,8.59094176 4.56206089,7.83112631 4.56206089,6.8735363 C4.56206089,6.37392412 4.68696206,5.91595316 4.93676815,5.49960968 C5.62373489,6.33229664 6.45120515,6.99843622 7.41920375,7.4980484 C8.38720234,7.99766058 9.43324965,8.27868821 10.557377,8.34113973 C10.5157427,8.13296799 10.4949258,7.92479938 10.4949258,7.71662763 C10.4949258,6.96720937 10.7603408,6.32709087 11.2911788,5.79625293 C11.8220167,5.26541499 12.4621352,5 13.2115535,5 C14.0026061,5 14.6687457,5.28102763 15.2099922,5.84309133 C15.8345074,5.71818829 16.4173795,5.49961124 16.9586261,5.18735363 C16.7504543,5.83268603 16.3445255,6.33229071 15.7408275,6.68618267 C16.3028912,6.62373115 16.8337212,6.48842155 17.3333333,6.2802498 C16.9586242,6.82149633 16.5006532,7.28987572 15.9594067,7.68540203 Z" id="ï " fill="#FFFFFF"></path>
                </g>
            </g>
        </g>
    </g>
</svg>